<svg viewBox="0 0 100 100" fill="none" xmlns="http://www.w3.org/2000/svg">
   
    <rect 
        x="5" 
        y="5" 
        width="90" 
        height="90" 
        fill="white" 
        rx="20"
        stroke="white" 
        stroke-width="0.1"
    />
    <g transform="translate(20.9484,37.36825)">
        <path 
            d="M9.84297 25.42
                C8.10964 25.42 6.52297 25.1267 5.08297 24.54
                C3.6563 23.9533 2.5163 23.0467 1.66297 21.82
                C0.822969 20.58 0.402969 18.98 0.402969 17.02
                C0.402969 16.2067 0.636301 15.58 1.10297 15.14
                C1.58297 14.7 2.18964 14.48 2.92297 14.48
                C3.84297 14.48 4.5163 14.7333 4.94297 15.24
                C5.38297 15.7333 5.7163 16.46 5.94297 17.42
                C6.0363 18.34 6.24964 19.1 6.58297 19.7
                C6.92964 20.2867 7.3763 20.7267 7.92297 21.02
                C8.46964 21.3 9.10964 21.44 9.84297 21.44
                C10.763 21.44 11.5296 21.2133 12.143 20.76
                C12.7563 20.2933 13.2163 19.5467 13.523 18.52
                C13.8296 17.4933 13.983 16.1467 13.983 14.48
                V3.4
                C13.983 1.29333 14.8963 0.239998 16.723 0.239998
                C18.5496 0.239998 19.463 1.29333 19.463 3.4
                V14.82
                C19.463 17.4467 19.0496 19.5333 18.223 21.08
                C17.4096 22.6267 16.2763 23.74 14.823 24.42
                C13.383 25.0867 11.723 25.42 9.84297 25.42
                Z" 
                fill="#0045AD"
        />
        <path 
            d=" M34.1029 5.48
                C34.6029 5.48 34.9879 5.60999 35.2579 5.87
                C35.5379 6.12999 35.6779 6.48499 35.6779 6.93499
                C35.6779 7.22499 35.6279 7.46999 35.5279 7.66999
                C35.4379 7.85999 35.2979 8.065 35.1079 8.285
                L31.7029 12.695
                L35.5279 17.525
                C35.7179 17.755 35.8379 17.98 35.8879 18.2
                C35.9379 18.41 35.9629 18.61 35.9629 18.8
                C35.9629 19.28 35.7929 19.65 35.4529 19.91
                C35.1229 20.16 34.7079 20.285 34.2079 20.285
                C33.5379 20.285 33.0229 20.155 32.6629 19.895
                C32.3129 19.625 31.9429 19.215 31.5529 18.665
                L29.2579 15.5
                L26.7229 18.95
                C26.4729 19.3 26.1779 19.61 25.8379 19.88
                C25.4979 20.15 25.0429 20.285 24.4729 20.285
                C24.0129 20.285 23.6279 20.145 23.3179 19.865
                C23.0079 19.585 22.8529 19.24 22.8529 18.83
                C22.8529 18.64 22.8879 18.45 22.9579 18.26
                C23.0379 18.07 23.1679 17.87 23.3479 17.66
                L27.0979 13.055
                L23.5129 8.465
                C23.3329 8.245 23.2129 8.03 23.1529 7.82
                C23.0929 7.6 23.0629 7.36499 23.0629 7.11499
                C23.0629 6.64499 23.2529 6.255 23.6329 5.945
                C24.0129 5.635 24.4729 5.48 25.0129 5.48
                C25.6329 5.48 26.1029 5.63 26.4229 5.93
                C26.7529 6.22 27.1029 6.64499 27.4729 7.20499
                L29.5729 10.13
                L31.6729 7.20499
                C32.0729 6.66499 32.4379 6.245 32.7679 5.945
                C33.0979 5.635 33.5429 5.48 34.1029 5.48
                Z "
            fill="#009F20"
        />
        <path 
            d=" M44.7714 4.2
                V11.02
                H48.9314
                C50.1847 11.02 51.1447 10.7267 51.8114 10.14
                C52.4781 9.54 52.8114 8.67333 52.8114 7.54
                C52.8114 6.40667 52.4714 5.56666 51.7914 5.02
                C51.1247 4.47333 50.1447 4.2 48.8514 4.2
                H44.7714Z
                M39.2714 22.14
                V3.4
                C39.2714 1.29333 40.3314 0.239998 42.4514 0.239998
                H49.8114
                C50.6914 0.239998 51.6247 0.326667 52.6114 0.5
                C53.5981 0.66 54.5247 0.986665 55.3914 1.48
                C56.2581 1.97333 56.9647 2.68 57.5114 3.6
                C58.0581 4.52 58.3314 5.74 58.3314 7.26
                C58.3314 8.96666 57.9447 10.3467 57.1714 11.4
                C56.4114 12.44 55.4847 13.2 54.3914 13.68
                L57.8114 21.58
                C57.9447 21.8733 58.0447 22.1533 58.1114 22.42
                C58.1781 22.6867 58.2114 22.94 58.2114 23.18
                C58.2114 23.8333 57.9914 24.3533 57.5514 24.74
                C57.1247 25.1267 56.5047 25.32 55.6914 25.32
                C54.7047 25.32 53.9981 25.08 53.5714 24.6
                C53.1447 24.1067 52.7647 23.4133 52.4314 22.52
                L49.3114 14.98
                H44.7714
                V22.14
                C44.7714 24.26 43.8514 25.32 42.0114 25.32
                C40.1847 25.32 39.2714 24.26 39.2714 22.14
                Z " 
            fill="#BF0000"
        />
    </g>
</svg>
